PathFileType        4      (X/Y/Z)      C:\Users\pc\Desktop\IMUTRC\Sujet_02\Sujet_02_velo_60.trc         
DataRate	CameraRate	NumFrames	NumMarkers	Units	OrigDataRate	OrigDataStartFrame	OrigNumFrames
60.0	60.0	4	64	mm	60.0	469	1250
Frame#	Time	pHipOrigin			pRightASI			pLeftASI			pRightCSI			pLeftCSI			pRightIschialTub			pLeftIschialTub			pSacrum			pL5SpinalProcess			pL3SpinalProcess			pT12SpinalProcess			pIJ			pT4SpinalProcess			pT8SpinalProcess			pPX			pC7SpinalProcess			pTopOfHead			pRightAuricularis			pLeftAuricularis			pBackOfHead			pRightAcromion			pLeftAcromion			pRightArmLatEpicondyle			pRightArmMedEpicondyle			pLeftArmLatEpicondyle			pLeftArmMedEpicondyle			pRightUlnarStyloid			pRightRadialStyloid			pRightOlecranon			pLeftUlnarStyloid			pLeftRadialStyloid			pLeftOlecranon			pRightTopOfHand			pRightPinky			pRightBallHand			pLeftTopOfHand			pLeftPinky			pLeftBallHand			pRightGreaterTrochanter			pRightKneeLatEpicondyle			pRightKneeMedEpicondyle			pRightPatella			pLeftGreaterTrochanter			pLeftKneeLatEpicondyle			pLeftKneeMedEpicondyle			pLeftPatella			pRightTibialTub			pRightLatMalleolus			pRightMedMalleolus			pLeftTibialTub			pLeftLatMalleolus			pLeftMedMalleolus			pRightHeelFoot			pRightFirstMetatarsal			pRightFifthMetatarsal			pRightPivotFoot			pRightHeelCenter			pRightToe			pLeftHeelFoot			pLeftFirstMetatarsal			pLeftFifthMetatarsal			pLeftPivotFoot			pLeftHeelCenter			pLeftToe			
		X1	Y1	Z1	X2	Y2	Z2	X3	Y3	Z3	X4	Y4	Z4	X5	Y5	Z5	X6	Y6	Z6	X7	Y7	Z7	X8	Y8	Z8	X9	Y9	Z9	X10	Y10	Z10	X11	Y11	Z11	X12	Y12	Z12	X13	Y13	Z13	X14	Y14	Z14	X15	Y15	Z15	X16	Y16	Z16	X17	Y17	Z17	X18	Y18	Z18	X19	Y19	Z19	X20	Y20	Z20	X21	Y21	Z21	X22	Y22	Z22	X23	Y23	Z23	X24	Y24	Z24	X25	Y25	Z25	X26	Y26	Z26	X27	Y27	Z27	X28	Y28	Z28	X29	Y29	Z29	X30	Y30	Z30	X31	Y31	Z31	X32	Y32	Z32	X33	Y33	Z33	X34	Y34	Z34	X35	Y35	Z35	X36	Y36	Z36	X37	Y37	Z37	X38	Y38	Z38	X39	Y39	Z39	X40	Y40	Z40	X41	Y41	Z41	X42	Y42	Z42	X43	Y43	Z43	X44	Y44	Z44	X45	Y45	Z45	X46	Y46	Z46	X47	Y47	Z47	X48	Y48	Z48	X49	Y49	Z49	X50	Y50	Z50	X51	Y51	Z51	X52	Y52	Z52	X53	Y53	Z53	X54	Y54	Z54	X55	Y55	Z55	X56	Y56	Z56	X57	Y57	Z57	X58	Y58	Z58	X59	Y59	Z59	X60	Y60	Z60	X61	Y61	Z61	X62	Y62	Z62	X63	Y63	Z63	X64	Y64	Z64	
469	7.8	0.0	1250.02827	7.654215598496017E-14	47.90254000000001	1368.35895	144.0497900000001	45.56443999999999	1368.13085	-145.01924999999991	-13.857519999999992	1427.55281	118.38771000000008	-15.739410000000007	1427.3247	-118.50176999999991	-44.366879999999995	1178.34553	59.65007000000007	-45.33634000000001	1178.23148	-58.79466999999993	-74.24894	1256.70041	0.5702700000000815	-55.43009	1373.43434	0.5132400000000875	-14.0286	1488.00126	6.900250000000092	34.61529	1588.36849	15.283190000000095	295.85523	1633.76185	31.022600000000082	173.8178	1734.35719	35.5847500000001	100.9375	1675.73361	25.776130000000094	199.76501	1549.59024	17.336160000000085	225.31303	1769.77086	43.112290000000094	465.22494	1777.9257	56.570620000000076	375.97794	1749.58336	112.17179000000009	382.19386	1777.98272	-13.857519999999914	370.27525	1812.71207	59.764130000000094	192.06639000000004	1711.66051	238.88542000000012	227.70816	1750.83795	-164.6364799999999	259.12995	1424.70147	283.8795900000001	221.20710000000003	1402.461	236.31921000000008	317.92462	1460.11514	-156.82379999999995	274.7553	1443.12114	-111.60151999999992	366.68256	1168.47989	343.35859000000005	406.31621	1182.67957	302.69845000000004	218.18468000000001	1414.03745	280.6290600000001	446.46311	1212.56164	-193.03583999999995	478.79732	1229.44158	-147.18626999999995	277.60664	1450.36355	-158.13541999999995	551.90573	1087.04557	328.87377	466.82169	1101.75849	357.61529	405.97405	1141.67728	332.46646000000004	636.70464	1192.9444	-103.95991999999997	567.81622	1176.00743	-160.92972999999995	493.39619	1195.2825	-165.26376999999994	19.731290000000012	1230.7532	177.80968000000007	344.55615	921.61071	175.18644000000003	352.19775	920.69828	88.90484000000002	379.5136	958.45005	131.50389000000004	26.91666999999999	1225.90592	-174.9013099999999	400.04326	980.91862	-132.07414999999997	402.32434	987.2486	-45.73551999999996	425.1921	1026.31199	-89.70320999999997	403.92109	883.23165	134.41225000000003	295.05685	465.11088	146.04573	303.04061	466.70763	78.12677000000001	423.48129	927.76961	-95.06373999999997	102.99046999999999	646.22812	-164.86458999999996	103.44668	637.21788	-97.00264999999996	247.83863	349.63154	90.55862000000002	433.0618	334.06321	96.03318999999999	409.79485	328.58863	180.60399	445.72176	328.9308	143.59358	289.24012	344.32804	101.5648	526.64284	321.68839	165.37783	-20.358580000000007	605.73906	-129.50794999999997	86.56673999999998	453.8766	-120.32662999999997	81.03513999999998	469.50195	-206.66525999999996	98.25723999999998	441.61583	-166.86052999999998	3.7067399999999915	570.78161	-137.37764999999996	147.75653	375.35064	-182.02965999999998	
470	7.817	0.0	1250.02827	7.654215598496017E-14	48.13065000000001	1368.2449	144.0497900000001	44.88011999999999	1368.41598	-144.96221999999992	-13.857519999999992	1427.38173	118.67285000000008	-16.480760000000007	1427.49578	-118.21662999999991	-44.024719999999995	1178.17445	59.70710000000007	-45.39336000000001	1178.23148	-58.73763999999993	-74.24894	1256.52933	0.8554000000000815	-55.65819	1373.37732	0.8554000000000875	-14.37076	1487.94423	7.071330000000092	34.2161	1588.42552	15.283190000000095	295.51307	1633.87591	30.110170000000082	173.41861	1734.47125	34.900420000000096	100.53831	1675.84766	25.433970000000095	199.36582	1549.7043	16.879940000000087	224.97087	1769.88491	42.14283000000009	464.9398	1777.86867	54.91684000000008	375.80686	1749.75444	110.80314000000008	381.68062	1777.9257	-15.340219999999915	370.04715	1812.82612	58.28143000000009	192.06639000000004	1712.17375	238.2581300000001	226.56762	1750.43876	-165.4918799999999	258.73076	1425.21471	284.16473000000013	220.63683000000003	1402.80316	236.7184000000001	316.72705	1459.65892	-156.99487999999994	273.67179	1442.836	-111.60151999999992	365.65608	1168.708	343.87183000000005	405.28973	1182.79363	303.09764000000007	217.72846000000004	1414.55069	280.9712300000001	445.49365	1212.21947	-192.86475999999993	477.71381	1229.09942	-147.01518999999993	276.52313	1449.96436	-158.24946999999995	550.93627	1087.27367	329.21593	465.90926	1101.92957	358.01448	404.94757	1141.84836	332.92267000000004	635.67815	1192.65927	-103.73181999999997	566.78973	1175.66527	-160.70162999999994	492.36971	1194.94034	-165.03566999999995	19.560210000000012	1229.21347	177.58157000000008	330.29944	905.98536	171.02348000000003	337.42779	905.30104	84.68485000000004	366.62554	941.51308	127.39795000000002	27.94314999999999	1227.10348	-174.73022999999992	409.16756	995.40344	-129.67902999999998	410.65025	1001.67639	-43.34039999999997	432.43451	1041.59518	-87.13700999999998	389.94951	867.94846	130.30632000000003	284.44986	448.97229	143.02331	292.43362	450.51201	75.04732000000001	431.80721	942.48254	-92.89671999999997	111.08827999999998	661.45428	-163.72404999999998	111.54449	652.21594	-95.91913999999996	236.83245	333.607	87.42214	421.99859	317.35435	92.95373999999998	398.67462	311.9368	177.58157	434.60152	312.16491	140.57115	278.23394	328.13242	98.48535	515.52261	304.63736	162.41243	-12.260770000000008	620.73712	-128.13929999999996	94.77859999999998	468.98871	-119.18608999999996	89.07591999999998	484.61406	-205.46768999999998	106.41207999999999	456.72794	-165.71998999999997	11.804559999999992	585.8367	-136.06602999999998	155.85435	390.46275	-181.00317999999996	
471	7.833	0.0	1250.02827	7.654215598496017E-14	48.301730000000006	1368.13085	144.10682000000008	44.19579999999999	1368.75814	-144.90518999999992	-13.857519999999992	1427.15362	119.07204000000009	-17.222100000000008	1427.66686	-117.81744999999991	-43.73957999999999	1177.94635	59.70710000000007	-45.39336000000001	1178.23148	-58.73763999999993	-74.24894	1256.41527	1.0835100000000812	-55.94333	1373.26326	1.1975600000000874	-14.71292	1487.94423	7.356460000000093	33.75989	1588.42552	15.340220000000096	295.05685	1634.04699	29.31179000000008	172.9624	1734.5853	34.3871800000001	100.0821	1675.90469	25.205860000000097	198.90961	1549.81835	16.537780000000087	224.51466	1770.05599	41.40148000000009	464.59764	1777.81164	53.377120000000076	375.57875	1749.98255	109.66261000000009	381.11035	1777.81164	-16.537779999999916	369.76201	1812.88315	56.969810000000095	191.95233000000002	1712.687	237.7448800000001	225.42709	1750.15363	-166.1191799999999	258.33157	1425.72795	284.5068900000001	220.06656000000004	1403.20235	237.28867000000008	315.47246	1459.37379	-157.10893999999993	272.53125	1442.66492	-111.54448999999993	364.6296	1168.99313	344.44210000000004	404.20622	1182.85065	303.61088000000007	217.27225000000004	1415.12096	281.4844700000001	444.41014	1211.93434	-192.52259999999995	476.6303	1228.87131	-146.67301999999995	275.32557	1449.67922	-158.24946999999995	549.96682	1087.50178	329.72917	464.88278	1102.15768	358.52772	403.97811	1142.01944	333.43592000000007	634.53762	1192.31711	-103.33262999999997	565.6492	1175.38014	-160.35946999999993	491.22917	1194.71224	-164.69350999999995	19.27507000000001	1227.61672	177.29644000000008	315.47246	891.15838	166.97458000000003	322.08758	890.75919	80.63595000000004	353.11017	925.37448	123.34905000000003	28.969629999999988	1228.47212	-174.5591499999999	417.89266	1010.4015	-127.05578999999997	418.51996	1016.67445	-40.66012999999997	439.16367	1057.33459	-84.28566999999995	375.29361	853.34959	126.25742000000002	272.18909	433.74612	139.6017	280.11582	435.22882	71.62571000000001	440.0761	957.7087	-90.38753999999997	120.32662999999998	675.88207	-162.35539999999997	120.72581	666.41562	-94.60751999999997	223.83034	318.78002	83.77242	408.82539	301.27278	89.36104999999999	385.44439	295.85523	173.93185	421.3713	295.85523	136.97846	265.11777	313.02031	94.83563	502.23535	287.70039	158.81974	-2.9083700000000077	634.59464	-126.37146999999996	104.75829999999999	483.24542	-117.47527999999997	98.65642999999999	498.69969	-203.75688999999997	116.27771999999999	470.92762	-164.00917999999996	21.271009999999993	599.69422	-134.29819999999998	165.9481	404.83352	-179.34939999999997	
472	7.85	0.0	1250.02827	7.654215598496017E-14	48.358760000000004	1367.95977	144.22087000000008	43.62552999999999	1369.1003	-144.79113999999993	-13.971579999999992	1426.86849	119.41420000000008	-17.849400000000006	1427.83795	-117.47527999999991	-43.454449999999994	1177.77526	59.65007000000007	-45.33634000000001	1178.23148	-58.79466999999993	-74.30597	1256.24419	1.2545900000000814	-56.17143	1373.14921	1.5397200000000875	-15.11211	1487.8872	7.641600000000093	33.3607	1588.42552	15.511300000000096	294.65767	1634.10401	28.741530000000083	172.56321	1734.64233	34.0450200000001	99.68291	1675.96171	25.148840000000096	198.51042	1549.81835	16.366700000000087	224.1725	1770.11302	40.888240000000096	464.25548	1777.75462	52.236580000000075	375.35064	1750.15363	108.75018000000009	380.59711	1777.64056	-17.507239999999914	369.47688	1812.94018	55.943330000000095	191.78125000000003	1713.14321	237.45975000000013	224.4006	1749.86849	-166.5183599999999	257.87536	1426.12714	284.9631000000001	219.43927000000002	1403.54451	237.9159600000001	314.33193	1459.03163	-156.99487999999994	271.50477	1442.43682	-111.31638999999993	363.66014	1169.16421	345.1834400000001	403.23676	1182.90768	304.23818000000006	216.75901000000002	1415.57718	282.0547400000001	443.38366	1211.59218	-192.00935999999993	475.60382	1228.6432	-146.10275999999993	274.24206	1449.33706	-158.13541999999995	548.99736	1087.67286	330.35647	463.91332	1102.32876	359.21205000000003	403.00866	1142.13349	334.1202400000001	633.51113	1191.97495	-102.81938999999997	564.62271	1175.03798	-159.78919999999994	490.20269	1194.37007	-164.18025999999995	18.93291000000001	1226.24808	177.0683300000001	301.21575	878.15626	163.26783000000003	307.37465	877.98518	76.87218000000004	339.93698	911.06075	119.69933000000005	30.05313999999999	1229.89779	-174.33103999999992	425.87642	1025.2855	-124.20444999999997	425.64831	1031.33035	-37.808789999999966	445.20852	1072.78886	-81.20621999999996	361.15096	840.11936	122.49365000000003	259.01589	420.34482	136.29414	266.82857	421.82751	68.31815000000002	447.83175	972.70676	-87.47916999999997	130.19227	688.88419	-160.98675999999998	130.42038	679.41774	-93.23887999999997	209.23147	306.06303	80.06568	394.05544	286.38878	85.71133999999999	370.56039	280.97123	170.22511	406.54432	280.68609	133.27172	250.5189	299.79008	91.12889	487.2373	271.5618	155.113	7.128349999999992	646.74136	-124.26147999999996	115.93556	496.19051	-115.36528999999997	109.37746999999999	511.30262	-201.70391999999998	127.34092999999999	483.81569	-161.89918999999998	31.535839999999993	612.01201	-132.18820999999997	177.41049	418.00672	-177.23940999999996	
